<svg width="48" height="48" viewBox="0 0 48 48" fill="none" xmlns="http://www.w3.org/2000/svg">
<path d="M45.0182 23.0266C45.022 23.0266 45.0249 23.0266 45.0288 23.0266C45.2966 23.0266 45.552 22.9143 45.7334 22.7175C45.9177 22.5178 46.0089 22.25 45.9849 21.9792C45.0211 11.378 36.6278 2.98179 26.0256 2.01603C25.7568 1.99491 25.486 2.08227 25.2864 2.26755C25.0867 2.45187 24.9753 2.71203 24.9782 2.98371C25.1452 17.0727 27.0038 22.8298 45.0182 23.0266ZM45.0182 24.9735C27.0038 25.1703 25.1462 30.9274 24.9792 45.0163C24.9763 45.288 25.0876 45.5482 25.2873 45.7325C25.4659 45.8967 25.6992 45.9879 25.9392 45.9879C25.968 45.9879 25.9977 45.9869 26.0265 45.984C36.6288 45.0183 45.022 36.6231 45.9849 26.0208C46.0089 25.7501 45.9187 25.4823 45.7334 25.2826C45.5481 25.0829 45.2899 24.984 45.0182 24.9735ZM21.91 2.02083C11.3414 3.01443 2.97501 11.4087 2.01597 21.9812C1.99197 22.2519 2.08221 22.5197 2.26749 22.7194C2.44893 22.9162 2.70525 23.0276 2.97213 23.0276C2.97597 23.0276 2.97981 23.0276 2.98365 23.0276C20.9385 22.8212 22.7923 17.0669 22.9612 2.98755C22.9641 2.71587 22.8518 2.45475 22.6521 2.27043C22.4505 2.08611 22.1808 1.99587 21.91 2.02083ZM2.98269 24.9725C2.68413 24.9389 2.44989 25.081 2.26653 25.2807C2.08221 25.4804 1.99101 25.7482 2.01501 26.0189C2.97405 36.5914 11.3414 44.9856 21.91 45.9792C21.9398 45.9821 21.9705 45.9831 22.0003 45.9831C22.2403 45.9831 22.4726 45.8928 22.6512 45.7287C22.8508 45.5443 22.9632 45.2832 22.9603 45.0116C22.7913 30.9332 20.9385 25.1789 2.98269 24.9725Z" fill="white"/>
</svg>
