<svg width="325" height="53" viewBox="0 0 325 53" fill="none" xmlns="http://www.w3.org/2000/svg">
<path fill-rule="evenodd" clip-rule="evenodd" d="M248.718 1.53027L230.209 23.1267L238.967 33.346L266.235 1.53027H248.718Z" fill="url(#paint0_linear_219_59)"/>
<path fill-rule="evenodd" clip-rule="evenodd" d="M303.138 44.3047L321.647 22.7084L312.889 12.489L285.621 44.3047L303.138 44.3047Z" fill="url(#paint1_linear_219_59)"/>
<g filter="url(#filter0_d_219_59)">
<path fill-rule="evenodd" clip-rule="evenodd" d="M265.929 44.8349L238.614 13.1309L230 23.1296L248.7 44.8349H265.929Z" fill="url(#paint2_linear_219_59)"/>
</g>
<g filter="url(#filter1_d_219_59)">
<rect width="13.5417" height="28.5697" transform="matrix(0.65362 -0.756823 0.65362 0.756823 294.475 11.2517)" fill="url(#paint3_linear_219_59)"/>
</g>
<g filter="url(#filter2_d_219_59)">
<path fill-rule="evenodd" clip-rule="evenodd" d="M303.329 1.09073L265.878 44.835L257.228 34.7312L286.106 1.00005L303.251 1.00006L303.329 1.09073Z" fill="url(#paint4_linear_219_59)"/>
</g>
<path d="M12.672 28.5726V41.0526H2.048V3.54861H6.272C7.296 3.54861 8.82133 3.50595 10.848 3.42061C12.8747 3.31395 14.5493 3.26061 15.872 3.26061C20.48 3.26061 23.9147 4.27395 26.176 6.30061C28.4587 8.32728 29.6 11.4313 29.6 15.6126C29.6 18.0873 29.056 20.2846 27.968 22.2046C26.9013 24.1246 25.4827 25.6499 23.712 26.7806C24.672 27.0153 25.4933 27.5593 26.176 28.4126C26.88 29.2659 27.424 30.2793 27.808 31.4526C28.192 32.6046 28.5227 33.7779 28.8 34.9726C29.0987 36.1459 29.4293 37.3086 29.792 38.4606C30.176 39.6126 30.592 40.4766 31.04 41.0526H19.232C18.9973 40.7539 18.816 39.9219 18.688 38.5566C18.56 37.1699 18.3787 35.5166 18.144 33.5966C17.9307 31.6553 17.6213 30.0339 17.216 28.7326C17.1733 28.7326 17.12 28.7326 17.056 28.7326C16.6507 28.7326 16.2133 28.7326 15.744 28.7326C15.296 28.7113 14.9013 28.6899 14.56 28.6686C14.2187 28.6473 13.856 28.6259 13.472 28.6046C13.1093 28.5833 12.8427 28.5726 12.672 28.5726ZM12.672 22.6206H13.696C14.2293 22.6206 14.6773 22.5993 15.04 22.5566C15.4027 22.5139 15.7973 22.4393 16.224 22.3326C16.672 22.2046 17.0347 22.0126 17.312 21.7566C17.6107 21.5006 17.888 21.1699 18.144 20.7646C18.4 20.3593 18.592 19.8366 18.72 19.1966C18.848 18.5566 18.912 17.8099 18.912 16.9566V14.4286C18.912 12.5726 18.4213 11.2819 17.44 10.5566C16.48 9.80995 15.0933 9.43661 13.28 9.43661H12.672V22.6206ZM46.2975 37.8846C47.2362 37.8846 47.9508 37.5006 48.4415 36.7326C48.9535 35.9433 49.2095 34.8659 49.2095 33.5006V23.3886C49.2095 19.2286 48.2282 17.1486 46.2655 17.1486C45.3482 17.1486 44.6335 17.5219 44.1215 18.2686C43.6095 19.0153 43.3535 20.0713 43.3535 21.4366V31.8366C43.3535 35.8686 44.3348 37.8846 46.2975 37.8846ZM46.0415 41.7246C41.1562 41.7246 37.5828 40.6153 35.3215 38.3966C33.0602 36.1779 31.9295 32.6366 31.9295 27.7726C31.9295 22.9513 33.0708 19.3246 35.3535 16.8926C37.6362 14.4393 41.3482 13.2126 46.4895 13.2126C51.5028 13.2126 55.1188 14.3859 57.3375 16.7326C59.5775 19.0579 60.6975 22.5886 60.6975 27.3246C60.6975 32.2313 59.5135 35.8579 57.1455 38.2046C54.7988 40.5513 51.0975 41.7246 46.0415 41.7246ZM74.5195 41.0526H64.1835V20.3486L62.2635 19.1646V15.7406L69.1435 13.8526H74.5835V17.9806C74.6902 17.8313 74.8395 17.6393 75.0315 17.4046C75.2448 17.1486 75.6288 16.7539 76.1835 16.2206C76.7382 15.6873 77.3035 15.2179 77.8795 14.8126C78.4768 14.4073 79.1915 14.0446 80.0235 13.7246C80.8768 13.3833 81.7195 13.2126 82.5515 13.2126C84.6848 13.2126 86.3168 13.6179 87.4475 14.4286C88.5782 15.2393 89.3782 16.5619 89.8475 18.3966C90.5728 17.1379 91.6822 15.9646 93.1755 14.8766C94.6902 13.7673 96.3542 13.2126 98.1675 13.2126C100.173 13.2126 101.73 13.5646 102.839 14.2686C103.97 14.9513 104.791 16.1246 105.304 17.7886C105.815 19.4526 106.071 21.7993 106.071 24.8286V41.0526H95.6715V23.9006C95.6715 22.9619 95.4475 22.2259 94.9995 21.6926C94.5515 21.1593 93.8688 20.8926 92.9515 20.8926C92.3328 20.8926 91.4902 21.4046 90.4235 22.4286C90.4875 23.4526 90.5195 24.5619 90.5195 25.7566V41.0526H79.9595V23.9006C80.0235 21.8953 79.1702 20.8926 77.3995 20.8926C77.2715 20.8926 77.1435 20.9033 77.0155 20.9246C76.9088 20.9459 76.8022 20.9673 76.6955 20.9886C76.6102 21.0099 76.5035 21.0526 76.3755 21.1166C76.2688 21.1593 76.1728 21.2019 76.0875 21.2446C76.0022 21.2659 75.9062 21.3193 75.7995 21.4046C75.6928 21.4686 75.6075 21.5219 75.5435 21.5646C75.4795 21.6073 75.3835 21.6819 75.2555 21.7886C75.1488 21.8739 75.0635 21.9379 74.9995 21.9806C74.9568 22.0233 74.8715 22.0979 74.7435 22.2046C74.6368 22.2899 74.5622 22.3539 74.5195 22.3966V41.0526ZM123.945 38.2046L123.625 38.5566C123.412 38.8126 123.081 39.1113 122.633 39.4526C122.206 39.7939 121.705 40.1353 121.129 40.4766C120.574 40.8179 119.892 41.1059 119.081 41.3406C118.27 41.5966 117.438 41.7246 116.585 41.7246C110.825 41.7246 107.945 38.8766 107.945 33.1806C107.945 32.0713 108.148 31.0579 108.553 30.1406C108.958 29.2019 109.481 28.4126 110.121 27.7726C110.761 27.1326 111.529 26.5673 112.425 26.0766C113.321 25.5646 114.217 25.1699 115.113 24.8926C116.03 24.5939 116.99 24.3486 117.993 24.1566C118.996 23.9646 119.892 23.8366 120.681 23.7726C121.47 23.7086 122.228 23.6766 122.953 23.6766V23.1006C122.953 21.7993 122.601 20.8819 121.897 20.3486C121.214 19.8153 120.105 19.5486 118.569 19.5486C117.246 19.5486 115.87 19.7086 114.441 20.0286C113.012 20.3273 111.892 20.6899 111.081 21.1166L109.033 16.7646C110.484 15.8259 112.372 15.0046 114.697 14.3006C117.022 13.5753 119.39 13.2126 121.801 13.2126C123.934 13.2126 125.694 13.4259 127.081 13.8526C128.468 14.2579 129.588 14.9619 130.441 15.9646C131.316 16.9459 131.934 18.2046 132.297 19.7406C132.66 21.2553 132.841 23.1859 132.841 25.5326V38.5566L133.737 41.0526H124.969L123.945 38.2046ZM121.417 36.0926C121.694 36.0926 121.95 36.0393 122.185 35.9326C122.441 35.8046 122.633 35.6873 122.761 35.5806C122.889 35.4526 122.953 35.3886 122.953 35.3886V27.7086C121.652 27.7086 120.617 28.0713 119.849 28.7966C119.081 29.5006 118.697 30.5993 118.697 32.0926C118.697 34.7593 119.604 36.0926 121.417 36.0926ZM147.269 41.0526H136.934V20.3486L135.014 19.1646V15.7406L141.893 13.8526H147.333V17.9806L147.718 17.5006C147.973 17.1593 148.347 16.7539 148.837 16.2846C149.349 15.8153 149.915 15.3566 150.533 14.9086C151.152 14.4393 151.888 14.0446 152.741 13.7246C153.616 13.3833 154.47 13.2126 155.301 13.2126C158.224 13.2126 160.283 14.0126 161.477 15.6126C162.693 17.2126 163.301 19.8899 163.301 23.6446C163.301 23.7726 163.301 23.9646 163.301 24.2206C163.28 24.4766 163.269 24.6793 163.269 24.8286V41.0526H152.71V23.9006C152.774 21.8953 151.92 20.8926 150.149 20.8926C150.021 20.8926 149.893 20.9033 149.766 20.9246C149.659 20.9459 149.552 20.9673 149.445 20.9886C149.36 21.0099 149.253 21.0526 149.125 21.1166C149.019 21.1593 148.923 21.2019 148.837 21.2446C148.752 21.2659 148.656 21.3193 148.549 21.4046C148.443 21.4686 148.358 21.5219 148.293 21.5646C148.229 21.6073 148.133 21.6819 148.005 21.7886C147.899 21.8739 147.813 21.9379 147.749 21.9806C147.707 22.0233 147.621 22.0979 147.493 22.2046C147.387 22.2899 147.312 22.3539 147.269 22.3966V41.0526ZM180.172 37.8846C181.111 37.8846 181.826 37.5006 182.317 36.7326C182.829 35.9433 183.085 34.8659 183.085 33.5006V23.3886C183.085 19.2286 182.103 17.1486 180.141 17.1486C179.223 17.1486 178.509 17.5219 177.997 18.2686C177.484 19.0153 177.228 20.0713 177.228 21.4366V31.8366C177.228 35.8686 178.21 37.8846 180.172 37.8846ZM179.916 41.7246C175.031 41.7246 171.458 40.6153 169.196 38.3966C166.935 36.1779 165.804 32.6366 165.804 27.7726C165.804 22.9513 166.946 19.3246 169.229 16.8926C171.511 14.4393 175.223 13.2126 180.365 13.2126C185.378 13.2126 188.994 14.3859 191.213 16.7326C193.453 19.0579 194.573 22.5886 194.573 27.3246C194.573 32.2313 193.389 35.8579 191.021 38.2046C188.674 40.5513 184.972 41.7246 179.916 41.7246ZM204.266 41.0526L194.859 13.8526H206.347L208.394 23.6766L209.867 32.1566L211.498 23.6766L213.866 13.8526H222.506L214.347 41.0526H204.266Z" fill="url(#paint5_linear_219_59)"/>
<defs>
<filter id="filter0_d_219_59" x="221" y="0.13092" width="51.9294" height="47.704" filterUnits="userSpaceOnUse" color-interpolation-filters="sRGB">
<feFlood flood-opacity="0" result="BackgroundImageFix"/>
<feColorMatrix in="SourceAlpha" type="matrix" values="0 0 0 0 0 0 0 0 0 0 0 0 0 0 0 0 0 0 127 0" result="hardAlpha"/>
<feOffset dx="-1" dy="-5"/>
<feGaussianBlur stdDeviation="4"/>
<feComposite in2="hardAlpha" operator="out"/>
<feColorMatrix type="matrix" values="0 0 0 0 0 0 0 0 0 0 0 0 0 0 0 0 0 0 0.25 0"/>
<feBlend mode="normal" in2="BackgroundImageFix" result="effect1_dropShadow_219_59"/>
<feBlend mode="normal" in="SourceGraphic" in2="effect1_dropShadow_219_59" result="shape"/>
</filter>
<filter id="filter1_d_219_59" x="289.475" y="1.00305" width="35.5248" height="39.8708" filterUnits="userSpaceOnUse" color-interpolation-filters="sRGB">
<feFlood flood-opacity="0" result="BackgroundImageFix"/>
<feColorMatrix in="SourceAlpha" type="matrix" values="0 0 0 0 0 0 0 0 0 0 0 0 0 0 0 0 0 0 127 0" result="hardAlpha"/>
<feOffset dx="-1" dy="4"/>
<feGaussianBlur stdDeviation="2"/>
<feComposite in2="hardAlpha" operator="out"/>
<feColorMatrix type="matrix" values="0 0 0 0 0 0 0 0 0 0 0 0 0 0 0 0 0 0 0.25 0"/>
<feBlend mode="normal" in2="BackgroundImageFix" result="effect1_dropShadow_219_59"/>
<feBlend mode="normal" in="SourceGraphic" in2="effect1_dropShadow_219_59" result="shape"/>
</filter>
<filter id="filter2_d_219_59" x="254.228" y="1.00006" width="54.1006" height="51.8349" filterUnits="userSpaceOnUse" color-interpolation-filters="sRGB">
<feFlood flood-opacity="0" result="BackgroundImageFix"/>
<feColorMatrix in="SourceAlpha" type="matrix" values="0 0 0 0 0 0 0 0 0 0 0 0 0 0 0 0 0 0 127 0" result="hardAlpha"/>
<feOffset dx="1" dy="4"/>
<feGaussianBlur stdDeviation="2"/>
<feComposite in2="hardAlpha" operator="out"/>
<feColorMatrix type="matrix" values="0 0 0 0 0 0 0 0 0 0 0 0 0 0 0 0 0 0 0.25 0"/>
<feBlend mode="normal" in2="BackgroundImageFix" result="effect1_dropShadow_219_59"/>
<feBlend mode="normal" in="SourceGraphic" in2="effect1_dropShadow_219_59" result="shape"/>
</filter>
<linearGradient id="paint0_linear_219_59" x1="248.222" y1="1.53027" x2="248.222" y2="33.346" gradientUnits="userSpaceOnUse">
<stop stop-color="#3AC5FC"/>
<stop offset="1" stop-color="#4D54DF"/>
</linearGradient>
<linearGradient id="paint1_linear_219_59" x1="303.634" y1="44.3047" x2="303.634" y2="12.4891" gradientUnits="userSpaceOnUse">
<stop stop-color="#F46FFB"/>
<stop offset="1" stop-color="#743EE1"/>
</linearGradient>
<linearGradient id="paint2_linear_219_59" x1="247.917" y1="13.0193" x2="247.917" y2="44.8349" gradientUnits="userSpaceOnUse">
<stop stop-color="#3AC5FC"/>
<stop offset="1" stop-color="#4D54DF"/>
</linearGradient>
<linearGradient id="paint3_linear_219_59" x1="6.77085" y1="0" x2="6.77085" y2="28.5697" gradientUnits="userSpaceOnUse">
<stop stop-color="#743EE1"/>
<stop offset="1" stop-color="#F46FFB"/>
</linearGradient>
<linearGradient id="paint4_linear_219_59" x1="280.306" y1="44.7708" x2="280.306" y2="1.00004" gradientUnits="userSpaceOnUse">
<stop stop-color="#4D54DF"/>
<stop offset="1" stop-color="#743EE1"/>
</linearGradient>
<linearGradient id="paint5_linear_219_59" x1="-48.1289" y1="29.1129" x2="245.266" y2="22.4657" gradientUnits="userSpaceOnUse">
<stop offset="0.0339731" stop-color="#3AC5FC"/>
<stop offset="0.333333" stop-color="#4D54DF"/>
<stop offset="0.625" stop-color="#743EE1"/>
<stop offset="1" stop-color="#F46FFB"/>
</linearGradient>
</defs>
</svg>
